<svg width="167" height="20" viewBox="0 0 167 20" fill="none" xmlns="http://www.w3.org/2000/svg">
<path d="M16.0236 5.35408C15.4227 5.61946 14.7884 5.78532 14.1208 5.88484C14.7884 5.48677 15.3225 4.8565 15.5562 4.09353C14.9219 4.45843 14.2209 4.72381 13.4531 4.88967C12.8522 4.2594 11.9843 3.86133 11.0496 3.86133C9.24693 3.86133 7.77811 5.32091 7.77811 7.11221C7.77811 7.37759 7.81149 7.6098 7.87826 7.842C5.17428 7.70931 2.73736 6.41559 1.10162 4.42526C0.834561 4.92284 0.667649 5.4536 0.667649 6.0507C0.667649 7.17856 1.23515 8.17373 2.13648 8.77083C1.60236 8.73765 1.10162 8.60497 0.634266 8.37276V8.40593C0.634266 9.9982 1.76927 11.3251 3.27148 11.6236C3.00442 11.69 2.70398 11.7232 2.40354 11.7232C2.20324 11.7232 1.96956 11.69 1.76927 11.6568C2.20324 12.9505 3.40501 13.9125 4.84045 13.9125C3.70545 14.775 2.30339 15.3058 0.767796 15.3058C0.500737 15.3058 0.233677 15.3058 0 15.2726C1.46883 16.2014 3.17133 16.7322 5.04075 16.7322C11.083 16.7322 14.3878 11.7563 14.3878 7.44393C14.3878 7.31125 14.3878 7.14538 14.3878 7.0127C15.0221 6.58146 15.5896 6.01753 16.0236 5.35408Z" fill="#241415"/>
<path d="M53.0975 18.6362V10.7225H50.4175V7.63832H53.0975V5.36386C53.0975 2.72436 54.7198 1.28711 57.0893 1.28711C58.2244 1.28711 59.1999 1.37108 59.4842 1.40862V4.16704L57.8408 4.16778C56.5521 4.16778 56.3026 4.77629 56.3026 5.66923V7.63832H59.3759L58.9758 10.7225H56.3026V18.6362H53.0975Z" fill="#241415"/>
<path d="M103.589 1.7394C106.182 1.7394 106.489 1.74906 107.514 1.79548C108.13 1.80297 108.74 1.91538 109.318 2.12783C109.737 2.28841 110.118 2.5344 110.435 2.84997C110.753 3.16554 111 3.54369 111.162 3.96008C111.376 4.53427 111.489 5.14063 111.496 5.75281C111.543 6.77098 111.553 7.07621 111.553 9.65359C111.553 12.231 111.543 12.5362 111.496 13.5544C111.489 14.1666 111.376 14.7729 111.162 15.3471C111 15.7635 110.753 16.1416 110.435 16.4572C110.118 16.7728 109.737 17.0188 109.318 17.1794C108.74 17.3918 108.13 17.5042 107.514 17.5117C106.49 17.5577 106.183 17.5678 103.589 17.5678C100.994 17.5678 100.687 17.5581 99.6631 17.5117C99.047 17.5042 98.4368 17.3918 97.859 17.1794C97.4399 17.0188 97.0594 16.7728 96.7418 16.4572C96.4243 16.1416 96.1767 15.7635 96.0151 15.3471C95.8013 14.7729 95.6882 14.1666 95.6807 13.5544C95.6344 12.5362 95.6242 12.231 95.6242 9.65359C95.6242 7.07621 95.6339 6.77098 95.6807 5.75281C95.6882 5.14063 95.8013 4.53427 96.0151 3.96008C96.1767 3.54369 96.4243 3.16554 96.7418 2.84997C97.0594 2.5344 97.4399 2.28841 97.859 2.12783C98.4368 1.91538 99.047 1.80297 99.6631 1.79548C100.688 1.74952 100.995 1.7394 103.589 1.7394ZM103.589 0C100.952 0 100.62 0.0110321 99.5835 0.0579188C98.7772 0.0738547 97.9795 0.225553 97.2243 0.50656C96.5765 0.749114 95.9897 1.12922 95.5049 1.62035C95.0102 2.10226 94.6274 2.68568 94.3831 3.32987C94.1003 4.08033 93.9477 4.87302 93.9316 5.6742C93.8854 6.70295 93.8743 7.033 93.8743 9.65313C93.8743 12.2733 93.8854 12.6033 93.9326 13.633C93.9486 14.4342 94.1012 15.2269 94.384 15.9773C94.628 16.6214 95.0105 17.2048 95.5049 17.6868C95.9899 18.1781 96.5771 18.5582 97.2252 18.8006C97.9805 19.0816 98.7782 19.2333 99.5844 19.2493C100.621 19.2952 100.951 19.3072 103.589 19.3072C106.228 19.3072 106.558 19.2962 107.595 19.2493C108.401 19.2333 109.199 19.0816 109.954 18.8006C110.599 18.5521 111.185 18.1726 111.674 17.6863C112.163 17.2 112.544 16.6176 112.794 15.9764C113.077 15.2259 113.229 14.4333 113.245 13.6321C113.292 12.6033 113.303 12.2733 113.303 9.65313C113.303 7.033 113.292 6.70295 113.245 5.67329C113.229 4.8721 113.076 4.07941 112.793 3.32895C112.549 2.68485 112.167 2.10143 111.672 1.61943C111.187 1.12819 110.6 0.748076 109.952 0.50564C109.197 0.224633 108.399 0.0729354 107.593 0.0569995C106.557 0.0110322 106.225 0 103.589 0Z" fill="#241415"/>
<path d="M103.587 4.69629C102.6 4.69629 101.636 4.98702 100.815 5.53171C99.9951 6.07641 99.3557 6.8506 98.9781 7.7564C98.6006 8.66219 98.5018 9.6589 98.6942 10.6205C98.8867 11.5821 99.3618 12.4653 100.059 13.1586C100.757 13.8519 101.646 14.324 102.614 14.5153C103.581 14.7065 104.584 14.6084 105.496 14.2332C106.407 13.858 107.187 13.2226 107.735 12.4074C108.283 11.5922 108.575 10.6338 108.575 9.6534C108.575 8.3387 108.05 7.07783 107.114 6.14819C106.179 5.21856 104.91 4.69629 103.587 4.69629ZM103.587 12.8711C102.946 12.8711 102.32 12.6824 101.788 12.3288C101.255 11.9753 100.84 11.4727 100.595 10.8848C100.35 10.2968 100.286 9.64983 100.411 9.02566C100.536 8.40148 100.844 7.82814 101.297 7.37814C101.75 6.92813 102.327 6.62168 102.955 6.49752C103.583 6.37336 104.234 6.43708 104.826 6.68063C105.418 6.92417 105.923 7.33659 106.279 7.86574C106.635 8.39489 106.825 9.017 106.825 9.6534C106.825 10.5068 106.484 11.3252 105.877 11.9287C105.269 12.5321 104.446 12.8711 103.587 12.8711Z" fill="#241415"/>
<path d="M108.774 5.65855C109.418 5.65855 109.94 5.13993 109.94 4.50017C109.94 3.86042 109.418 3.3418 108.774 3.3418C108.13 3.3418 107.608 3.86042 107.608 4.50017C107.608 5.13993 108.13 5.65855 108.774 5.65855Z" fill="#241415"/>
<path fill-rule="evenodd" clip-rule="evenodd" d="M156.986 0C151.836 0 147.693 4.11672 147.693 9.23377C147.693 13.312 150.365 16.7747 154.043 18.0058C154.508 18.0828 154.663 17.8135 154.663 17.5442C154.663 17.3133 154.663 16.7362 154.663 15.9667C152.068 16.5438 151.526 14.7356 151.526 14.7356C151.101 13.6583 150.481 13.389 150.481 13.389C149.629 12.8119 150.558 12.8119 150.558 12.8119C151.488 12.8888 151.991 13.7737 151.991 13.7737C152.804 15.1972 154.159 14.774 154.701 14.5432C154.779 13.9276 155.011 13.5429 155.282 13.312C153.23 13.0812 151.062 12.2732 151.062 8.7336C151.062 7.73328 151.41 6.88685 152.03 6.27127C151.952 6.04042 151.604 5.11704 152.107 3.80893C152.107 3.80893 152.882 3.57808 154.663 4.77078C155.398 4.57841 156.211 4.46299 156.986 4.46299C157.76 4.46299 158.573 4.57841 159.309 4.77078C161.09 3.57808 161.864 3.80893 161.864 3.80893C162.367 5.07857 162.058 6.00195 161.941 6.27127C162.522 6.92532 162.909 7.73328 162.909 8.7336C162.909 12.2732 160.741 13.0427 158.65 13.2735C158.999 13.5429 159.27 14.12 159.27 14.9664C159.27 16.1976 159.27 17.1979 159.27 17.5057C159.27 17.7365 159.425 18.0443 159.928 17.9674C163.606 16.7747 166.278 13.312 166.278 9.23377C166.278 4.11672 162.135 0 156.986 0Z" fill="#241415"/>
</svg>
