<svg width="214" height="50" viewBox="0 0 214 50" fill="none" xmlns="http://www.w3.org/2000/svg">
<path fill-rule="evenodd" clip-rule="evenodd" d="M0.88512 0.766697C0.323056 1.37078 0 2.30055 0 3.50873V46.483C0 47.6912 0.323055 48.6209 0.906131 49.204L1.05847 49.3327L25.1379 25.2533V24.7122L1.03745 0.638L0.88512 0.766697Z" fill="url(#paint0_linear_1_417)"/>
<path fill-rule="evenodd" clip-rule="evenodd" d="M33.1487 33.3113L25.117 25.2769V24.7148L33.1513 16.6805L33.3247 16.7882L42.8272 22.1882C45.5483 23.722 45.5483 26.2487 42.8272 27.8036L33.3247 33.2036C33.3221 33.2036 33.1487 33.3113 33.1487 33.3113Z" fill="url(#paint1_linear_1_417)"/>
<path fill-rule="evenodd" clip-rule="evenodd" d="M33.3219 33.2036L25.1168 24.9958L0.88501 49.2276C1.77013 50.1784 3.25934 50.2861 4.92452 49.3563L33.3219 33.2036Z" fill="url(#paint2_linear_1_417)"/>
<path fill-rule="evenodd" clip-rule="evenodd" d="M33.3219 16.7908L4.92452 0.659013C3.26196 -0.291768 1.77013 -0.163071 0.88501 0.78771L25.1142 24.9959L33.3219 16.7908Z" fill="url(#paint3_linear_1_417)"/>
<path opacity="0.2" fill-rule="evenodd" clip-rule="evenodd" d="M33.1487 33.0302L4.94567 49.0543C3.36979 49.9604 1.96462 49.8974 1.05849 49.0753L0.906158 49.2276L1.05849 49.3563C1.96462 50.1758 3.36979 50.2415 4.94567 49.3353L33.343 33.2036L33.1487 33.0302Z" fill="black"/>
<path opacity="0.12" fill-rule="evenodd" clip-rule="evenodd" d="M42.8246 27.5225L33.1277 33.0302L33.301 33.2036L42.8036 27.8035C44.1641 27.0261 44.8338 26.0123 44.8338 24.9958C44.7471 25.9256 44.0564 26.8107 42.8246 27.5225Z" fill="black"/>
<path opacity="0.25" fill-rule="evenodd" clip-rule="evenodd" d="M4.92463 0.940058L42.8246 22.4718C44.0564 23.1626 44.7471 24.0687 44.8548 24.9985C44.8548 23.9847 44.1851 22.9682 42.8246 22.1908L4.92463 0.659026C2.20361 -0.895843 0 0.399006 0 3.50874V3.78978C0 0.680037 2.20361 -0.593799 4.92463 0.940058Z" fill="white"/>
<path fill-rule="evenodd" clip-rule="evenodd" d="M54.1052 23.6328C54.1052 16.7488 59.8913 11.1439 66.7753 11.1439C70.581 11.1439 73.2889 12.6384 75.3323 14.5846L72.9265 16.9904C71.4661 15.6194 69.4858 14.5557 66.7726 14.5557C61.7456 14.5557 57.8164 18.6031 57.8164 23.6301C57.8164 28.6572 61.7456 32.7098 66.77 32.7098C70.0295 32.7098 71.8837 31.4019 73.0735 30.2094C74.0479 29.235 74.6862 27.8351 74.9331 25.9152H66.7753V22.5113H78.2582C78.379 23.1206 78.442 23.8508 78.442 24.6413C78.442 27.1969 77.7408 30.367 75.4846 32.6232C73.2889 34.9082 70.4891 36.1269 66.7726 36.1269C59.886 36.1269 54.0999 30.5273 54.0999 23.638L54.1052 23.6328ZM87.724 20.0398C83.2774 20.0398 79.6476 23.4227 79.6476 28.0794C79.6476 32.7125 83.2747 36.119 87.724 36.119C92.1732 36.119 95.7951 32.7072 95.7951 28.0768C95.7951 23.42 92.1706 20.0371 87.724 20.0398ZM87.724 32.9567C85.2892 32.9567 83.1854 30.9475 83.1854 28.082C83.1854 25.1876 85.2866 23.2073 87.724 23.2073C90.1587 23.2073 92.2599 25.185 92.2599 28.082C92.2599 30.9449 90.1613 32.9567 87.724 32.9567ZM105.334 20.0398C100.888 20.0398 97.2633 23.4227 97.2633 28.0794C97.2633 32.7125 100.888 36.119 105.334 36.119C109.781 36.119 113.406 32.7072 113.406 28.0768C113.406 23.42 109.784 20.0371 105.334 20.0398ZM105.334 32.9567C102.9 32.9567 100.796 30.9475 100.796 28.082C100.796 25.1876 102.897 23.2073 105.334 23.2073C107.769 23.2073 109.873 25.185 109.873 28.082C109.873 30.9449 107.769 32.9567 105.334 32.9567ZM126.948 20.5283V21.8363H126.827C126.036 20.8881 124.513 20.0371 122.596 20.0371C118.574 20.0371 114.884 23.5724 114.884 28.1135C114.884 32.6179 118.572 36.1243 122.596 36.1243C124.513 36.1243 126.036 35.2733 126.827 34.2989H126.948V35.4545C126.948 38.5301 125.303 40.1769 122.653 40.1769C120.489 40.1769 119.15 38.622 118.601 37.3167L115.522 38.5958C116.405 40.7258 118.753 43.347 122.651 43.347C126.79 43.347 130.294 40.9071 130.294 34.9686V20.5257L126.948 20.5283ZM122.898 32.9567C120.463 32.9567 118.417 30.9133 118.417 28.1135C118.417 25.2822 120.46 23.2099 122.898 23.2099C125.303 23.2099 127.192 25.2796 127.192 28.1135C127.195 30.9133 125.306 32.9567 122.898 32.9567ZM132.734 11.9975H136.269V35.6357H132.734V11.9975ZM145.958 32.9567C144.162 32.9567 142.88 32.132 142.063 30.522L152.816 26.0701L152.445 25.1561C151.778 23.3622 149.735 20.0398 145.561 20.0398C141.419 20.0398 137.976 23.2992 137.976 28.082C137.976 32.5864 141.388 36.1216 145.958 36.1216C149.646 36.1216 151.778 33.8707 152.661 32.5575L149.919 30.7321C149.002 32.0742 147.752 32.9594 145.958 32.9567ZM145.682 23.1469C147.082 23.1469 148.269 23.8481 148.666 24.8515L141.475 27.8377C141.385 24.7306 143.883 23.1469 145.682 23.1469Z" fill="#808285"/>
<path fill-rule="evenodd" clip-rule="evenodd" d="M168.328 11.9974H159.876V35.6356H163.403V26.682H168.331C172.241 26.682 176.087 23.8507 176.087 19.3384C176.087 14.834 172.244 12.0001 168.336 12.0001L168.328 11.9974ZM168.42 23.3911H163.403V15.2858H168.42C171.057 15.2858 172.559 17.4736 172.559 19.3384C172.559 21.1717 171.057 23.3911 168.42 23.3911ZM181.557 35.6356V11.9974H178.03V35.6356H181.557ZM197.403 35.5936V26.5323C197.403 22.3352 194.267 19.995 190.22 19.995C187.669 19.995 185.024 21.1218 183.929 23.6143L187.06 24.9197C187.73 23.6143 188.975 23.1862 190.285 23.1862C192.108 23.1862 193.962 24.2814 193.991 26.2303V26.4745C193.353 26.1094 191.987 25.5605 190.311 25.5605C186.936 25.5605 183.501 27.4148 183.501 30.8817C183.501 34.0466 186.269 36.0821 189.371 36.0821C191.746 36.0821 193.051 35.0184 193.87 33.7735H193.991V35.5989H197.4L197.403 35.5936ZM189.799 32.9514C188.644 32.9514 187.031 32.3736 187.031 30.9474C187.031 29.122 189.04 28.4181 190.774 28.4181C192.326 28.4181 193.054 28.7517 193.999 29.2087C193.729 31.3309 191.935 32.9251 189.799 32.9514ZM209.808 20.5124L205.763 30.7583H205.642L201.445 20.5124H197.645L203.938 34.8372L200.347 42.8033H204.027L213.726 20.5124H209.808Z" fill="#808285"/>
<defs>
<linearGradient id="paint0_linear_1_417" x1="22.9757" y1="3.0468" x2="-15.5954" y2="13.3241" gradientUnits="userSpaceOnUse">
<stop stop-color="#00A0FF"/>
<stop offset="0.007" stop-color="#00A1FF"/>
<stop offset="0.26" stop-color="#00BEFF"/>
<stop offset="0.512" stop-color="#00D2FF"/>
<stop offset="0.76" stop-color="#00DFFF"/>
<stop offset="1" stop-color="#00E3FF"/>
</linearGradient>
<linearGradient id="paint1_linear_1_417" x1="46.368" y1="24.9971" x2="-0.661254" y2="24.9971" gradientUnits="userSpaceOnUse">
<stop stop-color="#FFE000"/>
<stop offset="0.409" stop-color="#FFBD00"/>
<stop offset="0.775" stop-color="#FFA500"/>
<stop offset="1" stop-color="#FF9C00"/>
</linearGradient>
<linearGradient id="paint2_linear_1_417" x1="28.8602" y1="29.4609" x2="-2.10485" y2="81.5771" gradientUnits="userSpaceOnUse">
<stop stop-color="#FF3A44"/>
<stop offset="1" stop-color="#C31162"/>
</linearGradient>
<linearGradient id="paint3_linear_1_417" x1="-5.21473" y1="-13.5286" x2="8.59972" y2="9.7473" gradientUnits="userSpaceOnUse">
<stop stop-color="#32A071"/>
<stop offset="0.069" stop-color="#2DA771"/>
<stop offset="0.476" stop-color="#15CF74"/>
<stop offset="0.801" stop-color="#06E775"/>
<stop offset="1" stop-color="#00F076"/>
</linearGradient>
</defs>
</svg>
