<svg width="36" height="36" viewBox="0 0 36 36" fill="none" xmlns="http://www.w3.org/2000/svg">
<path d="M26.0884 26.8472C25.4596 27.2991 24.7046 27.5418 23.9303 27.5408C23.4123 27.5404 22.9 27.4337 22.4248 27.2275L22.0343 25.7273L21.289 22.8551L21.1297 22.2385C21.1917 22.1045 21.2266 21.9595 21.2325 21.812C21.2337 21.6496 21.1911 21.4898 21.1092 21.3496C21.0355 21.2173 20.9314 21.1045 20.8055 21.0205C20.6795 20.9365 20.5354 20.8837 20.3849 20.8666C20.2513 20.8563 20.0715 20.8614 18.232 20.8614C17.4143 20.8615 16.6299 20.5377 16.0502 19.9609C15.4706 19.3842 15.1429 18.6013 15.1389 17.7836V16.7506L20.2976 17.2953L21.5308 17.4237L22.944 17.5727C23.471 17.6287 23.9559 17.886 24.2977 18.291C24.6394 18.696 24.8116 19.2173 24.7781 19.7461L24.4749 24.6429C24.4569 24.9391 24.5031 25.2358 24.6104 25.5125C24.7177 25.7892 24.8836 26.0394 25.0967 26.246C25.2453 26.3931 25.4172 26.5146 25.6054 26.6057L26.0884 26.8472Z" fill="#E0925B"/>
<path d="M9.78997 26.2203L9.02947 28.2499C8.71745 28.2839 8.40443 28.1954 8.15626 28.0033H8.15113L8.0586 27.9259C7.9457 27.8193 7.85526 27.6912 7.79262 27.5492C7.72997 27.4071 7.69638 27.2539 7.69382 27.0987C7.69385 27.0351 7.699 26.9716 7.70922 26.9089C7.75291 26.6475 7.88489 26.4091 8.08313 26.2333C8.28137 26.0575 8.53389 25.955 8.79857 25.9428C8.96492 25.9336 9.13133 25.96 9.28668 26.0202L9.46654 26.0922L9.78997 26.2203Z" fill="#FED673"/>
<path d="M16.0585 31.3171C16.0572 31.6041 16.0157 31.8895 15.9353 32.165C15.7523 32.7643 15.3803 33.2884 14.8749 33.6589C14.3695 34.0295 13.7578 34.2266 13.1311 34.2208C12.5045 34.215 11.8965 34.0067 11.398 33.6269C10.8995 33.2471 10.5373 32.7162 10.3654 32.1136C10.2884 31.8552 10.2503 31.5867 10.2523 31.3171C10.2514 31.0547 10.2878 30.7935 10.3603 30.5412C10.5334 29.9169 10.9103 29.3685 11.4311 28.9832C11.9519 28.5979 12.5866 28.3979 13.2342 28.4151C13.8818 28.4322 14.5051 28.6655 15.0048 29.0778C15.5045 29.4901 15.8519 30.0577 15.9917 30.6902C16.0351 30.8964 16.0575 31.1064 16.0585 31.3171Z" fill="#FED673"/>
<path d="M33.9704 31.1376C33.971 31.4889 33.9066 31.8373 33.7806 32.1653C33.5724 32.7165 33.2013 33.1912 32.7166 33.5262C32.232 33.8612 31.6568 34.0407 31.0676 34.0407C30.4784 34.0407 29.9032 33.8612 29.4185 33.5262C28.9338 33.1912 28.5627 32.7165 28.3546 32.1653C28.2286 31.8373 28.1642 31.4889 28.1647 31.1376C28.1626 30.9824 28.1764 30.8275 28.2058 30.6751C28.3146 29.9944 28.6625 29.3748 29.1871 28.9274C29.7116 28.4801 30.3784 28.2344 31.0678 28.2344C31.7572 28.2344 32.424 28.4801 32.9485 28.9274C33.473 29.3748 33.8209 29.9944 33.9298 30.6751C33.959 30.8275 33.9726 30.9824 33.9704 31.1376Z" fill="#FED673"/>
<path d="M16.7522 31.1376C16.7522 32.0915 16.3733 33.0064 15.6988 33.6809C15.0243 34.3554 14.1094 34.7343 13.1555 34.7343C12.2016 34.7343 11.2867 34.3554 10.6122 33.6809C9.93766 33.0064 9.55872 32.0915 9.55872 31.1376C9.55872 30.6032 9.8465 30.4079 10.1704 30.4645C10.2392 30.474 10.3045 30.5006 10.3603 30.5418C10.4438 30.5963 10.5097 30.6738 10.5498 30.7651C10.59 30.8563 10.6027 30.9573 10.5864 31.0557V31.1379C10.5846 31.4764 10.6498 31.8119 10.7781 32.1251C10.9064 32.4384 11.0954 32.7232 11.3341 32.9632C11.5728 33.2032 11.8567 33.3936 12.1692 33.5236C12.4818 33.6535 12.817 33.7204 13.1555 33.7204C13.494 33.7204 13.8292 33.6535 14.1418 33.5236C14.4544 33.3936 14.7382 33.2032 14.9769 32.9632C15.2157 32.7232 15.4046 32.4384 15.5329 32.1251C15.6613 31.8119 15.7264 31.4764 15.7246 31.1379C15.7239 31.046 15.7484 30.9557 15.7955 30.8769C15.8426 30.798 15.9106 30.7336 15.9918 30.6908C16.066 30.6455 16.1516 30.6224 16.2385 30.624C16.3746 30.6244 16.505 30.6787 16.6012 30.7749C16.6975 30.8711 16.7518 31.0015 16.7522 31.1376Z" fill="#7C737D"/>
<path d="M34.6641 31.1376C34.6641 31.61 34.571 32.0777 34.3903 32.514C34.2095 32.9504 33.9446 33.3469 33.6106 33.6809C33.2766 34.0149 32.8801 34.2798 32.4437 34.4606C32.0073 34.6414 31.5396 34.7344 31.0673 34.7344C30.595 34.7344 30.1272 34.6414 29.6909 34.4606C29.2545 34.2798 28.858 34.0149 28.524 33.6809C28.19 33.3469 27.9251 32.9504 27.7443 32.514C27.5636 32.0777 27.4705 31.61 27.4705 31.1376C27.4709 31.0015 27.5252 30.871 27.6215 30.7747C27.7177 30.6785 27.8482 30.6242 27.9844 30.6238C28.0608 30.625 28.1362 30.6425 28.2053 30.6752C28.2932 30.7162 28.3675 30.7816 28.4194 30.8635C28.4713 30.9455 28.4987 31.0406 28.4982 31.1376C28.4986 31.4909 28.5704 31.8404 28.7091 32.1653C28.91 32.6236 29.24 33.0135 29.6589 33.2872C30.0777 33.561 30.5672 33.7067 31.0676 33.7067C31.568 33.7067 32.0575 33.561 32.4764 33.2872C32.8952 33.0135 33.2252 32.6236 33.4261 32.1653C33.5648 31.8404 33.6365 31.4909 33.637 31.1376C33.6365 31.0406 33.6638 30.9455 33.7157 30.8635C33.7676 30.7816 33.8419 30.7162 33.9299 30.6752C33.999 30.6425 34.0743 30.625 34.1508 30.6238C34.2868 30.6243 34.4171 30.6787 34.5133 30.7749C34.6095 30.8712 34.6636 31.0016 34.6641 31.1376Z" fill="#7C737D"/>
<path d="M15.9353 32.1653C15.7523 32.7647 15.3803 33.2888 14.8749 33.6593C14.3695 34.0298 13.7578 34.2269 13.1311 34.2211C12.5045 34.2154 11.8965 34.007 11.398 33.6272C10.8995 33.2474 10.5373 32.7165 10.3654 32.1139C10.5072 32.145 10.6519 32.1605 10.797 32.1601C10.8346 32.1644 10.8723 32.1662 10.9101 32.1653H15.9353Z" fill="#FED673"/>
<path d="M33.7803 32.1653C33.5721 32.7165 33.201 33.1912 32.7164 33.5262C32.2317 33.8613 31.6565 34.0407 31.0673 34.0407C30.4781 34.0407 29.9029 33.8613 29.4182 33.5262C28.9336 33.1912 28.5624 32.7165 28.3543 32.1653H33.7803Z" fill="#FED673"/>
<path d="M16.6032 32.1653C16.3745 32.9312 15.8974 33.5991 15.2471 34.0637C14.5968 34.5284 13.8103 34.7633 13.0117 34.7315C12.2131 34.6997 11.4478 34.4029 10.8366 33.888C10.2253 33.3731 9.80281 32.6694 9.63577 31.8878C9.86722 31.9969 10.1128 32.073 10.3654 32.1139C10.5072 32.1451 10.6519 32.1606 10.7971 32.1601C10.9969 32.6192 11.3263 33.01 11.7449 33.2846C12.1635 33.5593 12.6531 33.7059 13.1538 33.7064C13.6544 33.707 14.1444 33.5615 14.5636 33.2877C14.9828 33.014 15.3131 32.6239 15.5139 32.1653H16.6032Z" fill="#7C737D"/>
<path d="M34.5151 32.1653C34.2935 32.9076 33.8383 33.5586 33.2171 34.0215C32.5959 34.4844 31.842 34.7344 31.0673 34.7344C30.2926 34.7344 29.5386 34.4844 28.9174 34.0215C28.2962 33.5586 27.841 32.9076 27.6195 32.1653H28.7086C28.9094 32.6236 29.2394 33.0134 29.6583 33.2872C30.0771 33.5609 30.5667 33.7067 31.067 33.7067C31.5674 33.7067 32.0569 33.5609 32.4758 33.2872C32.8946 33.0134 33.2247 32.6236 33.4255 32.1653H34.5151Z" fill="#7C737D"/>
<path d="M10.797 32.1601C10.6519 32.1605 10.5072 32.145 10.3654 32.1139C10.1128 32.073 9.86721 31.9968 9.63576 31.8877C9.58386 31.6411 9.55794 31.3896 9.55842 31.1376C9.55842 30.6032 9.84621 30.4079 10.1701 30.4645C10.2389 30.474 10.3042 30.5006 10.36 30.5418C10.4435 30.5963 10.5094 30.6738 10.5495 30.7651C10.5897 30.8563 10.6024 30.9573 10.5861 31.0557V31.1379C10.5866 31.4894 10.6583 31.8371 10.797 32.1601Z" fill="#6C646D"/>
<path d="M15.9917 30.6906C15.9105 30.7334 15.8426 30.7978 15.7954 30.8766C15.7483 30.9555 15.7238 31.0458 15.7245 31.1376C15.7241 31.4909 15.6524 31.8404 15.5136 32.1653H10.9101C10.8723 32.1662 10.8346 32.1644 10.797 32.1601C10.6583 31.8371 10.5865 31.4892 10.5861 31.1376V31.0554C10.6024 30.9571 10.5897 30.8561 10.5495 30.7649C10.5094 30.6736 10.4435 30.596 10.36 30.5416C10.5331 29.9173 10.91 29.3689 11.4308 28.9836C11.9516 28.5983 12.5863 28.3983 13.2339 28.4154C13.8815 28.4326 14.5048 28.6659 15.0045 29.0781C15.5042 29.4904 15.8516 30.058 15.9915 30.6906H15.9917Z" fill="#FEC845"/>
<path d="M16.7522 31.1376C16.7528 31.4856 16.7026 31.8318 16.6032 32.1653H15.5139C15.6527 31.8404 15.7244 31.4909 15.7248 31.1376C15.7241 31.0457 15.7486 30.9554 15.7957 30.8766C15.8428 30.7977 15.9108 30.7334 15.992 30.6905C16.0662 30.6453 16.1518 30.6221 16.2387 30.6237C16.3748 30.6242 16.5052 30.6785 16.6014 30.7748C16.6976 30.8711 16.7518 31.0015 16.7522 31.1376Z" fill="#6C646D"/>
<path d="M28.7086 32.1653H27.6195C27.5201 31.8318 27.4699 31.4856 27.4705 31.1376C27.4709 31.0015 27.5252 30.871 27.6215 30.7747C27.7178 30.6785 27.8482 30.6242 27.9844 30.6238C28.0608 30.625 28.1362 30.6425 28.2053 30.6752C28.2932 30.7162 28.3675 30.7816 28.4194 30.8635C28.4713 30.9455 28.4987 31.0406 28.4982 31.1376C28.4985 31.4909 28.57 31.8404 28.7086 32.1653Z" fill="#6C646D"/>
<path d="M33.9293 30.6751C33.8414 30.7162 33.7671 30.7815 33.7152 30.8635C33.6633 30.9454 33.636 31.0406 33.6365 31.1376C33.636 31.4908 33.5643 31.8404 33.4255 32.1653H28.7086C28.5698 31.8404 28.4981 31.4908 28.4977 31.1376C28.4981 31.0406 28.4708 30.9454 28.4189 30.8635C28.367 30.7815 28.2927 30.7162 28.2047 30.6751C28.3136 29.9944 28.6615 29.3748 29.186 28.9274C29.7106 28.4801 30.3774 28.2344 31.0667 28.2344C31.7561 28.2344 32.4229 28.4801 32.9475 28.9274C33.472 29.3748 33.8199 29.9944 33.9287 30.6751H33.9293Z" fill="#FEC845"/>
<path d="M34.6641 31.1376C34.6646 31.4856 34.6144 31.8318 34.5151 32.1653H33.4258C33.5645 31.8404 33.6363 31.4909 33.6367 31.1376C33.6362 31.0406 33.6636 30.9455 33.7155 30.8635C33.7674 30.7816 33.8417 30.7162 33.9296 30.6752C33.9987 30.6425 34.074 30.625 34.1505 30.6238C34.2866 30.6243 34.417 30.6786 34.5132 30.7748C34.6094 30.8711 34.6636 31.0015 34.6641 31.1376Z" fill="#6C646D"/>
<path d="M26.0884 26.8472C25.4596 27.2991 24.7046 27.5417 23.9303 27.5408C23.4123 27.5404 22.9 27.4337 22.4248 27.2274L22.0343 25.7273C22.4276 26.1212 22.9339 26.3828 23.4827 26.4758C24.0315 26.5688 24.5956 26.4886 25.0967 26.2463C25.2453 26.3934 25.4172 26.5149 25.6054 26.6059L26.0884 26.8472Z" fill="#DB7A35"/>
<path d="M34.6641 31.1376H10.9101C10.5802 31.1376 10.2551 31.0581 9.96247 30.9058C9.66981 30.7535 9.41818 30.5329 9.22888 30.2627C9.03959 29.9925 8.91821 29.6806 8.87504 29.3535C8.83187 29.0264 8.86817 28.6938 8.98088 28.3837L9.02947 28.2501L9.78997 26.2204L10.5453 24.2011L10.9203 23.1941C11.4795 23.6784 12.1947 23.9448 12.9346 23.9442H18.3708C19.0428 23.945 19.6964 23.7247 20.2308 23.3174C20.2051 23.7109 20.2275 24.106 20.2976 24.4941C20.832 27.3149 23.9609 28.3683 26.0884 26.8474C26.5747 26.5066 26.9715 26.0536 27.2453 25.5267C27.5191 24.9998 27.6616 24.4146 27.6609 23.8208C27.6609 23.4457 27.029 17.1668 26.8491 15.2092C26.8286 14.9625 26.8131 14.7878 26.8081 14.6953H29.9834L30.9967 26.7009C31.0134 26.9187 31.1001 27.1252 31.2437 27.2897C31.3873 27.4542 31.5803 27.568 31.7938 27.614C32.6048 27.7809 33.3334 28.2227 33.8564 28.8647C34.3794 29.5067 34.6647 30.3096 34.6641 31.1376Z" fill="#F16069"/>
<path d="M29.9832 14.6953H26.8078C26.8128 14.7878 26.8283 14.9625 26.8488 15.2092C26.8746 15.4763 26.9051 15.8309 26.9464 16.2368H27.4705C27.6297 16.2361 27.7883 16.2172 27.9432 16.1805C28.1805 16.5157 28.4947 16.7891 28.8595 16.9778C29.2243 17.1664 29.629 17.2648 30.0397 17.2647H30.1992L29.9832 14.6953Z" fill="#EF444E"/>
<path d="M28.4982 14.1814C28.498 14.362 28.4502 14.5392 28.3594 14.6953C28.3152 14.7731 28.2599 14.8442 28.1953 14.9062C28.1011 15.0028 27.9885 15.0794 27.8641 15.1315C27.7396 15.1836 27.606 15.2101 27.4711 15.2094H21.6492C21.4747 15.6014 21.2702 15.9793 21.0375 16.3398C20.8212 16.6807 20.5735 17.0007 20.2976 17.2955L15.1389 16.7509C15.1414 16.4073 15.1775 16.0649 15.2467 15.7284C15.7966 13.1232 18.2731 10.698 19.8712 9.36722C20.1794 9.10516 20.4517 8.88909 20.6779 8.71985C21.1361 9.17142 21.702 9.4986 22.3221 9.6704C22.6164 9.98162 22.8067 10.3767 22.8667 10.8008C23.0054 11.6743 22.6768 12.63 22.3375 13.1541H27.4703C27.7426 13.1548 28.0036 13.2633 28.1961 13.4558C28.3887 13.6483 28.4973 13.9092 28.4982 14.1814Z" fill="#FED673"/>
<path d="M21.0375 16.3396C20.8212 16.6805 20.5735 17.0004 20.2976 17.2953L15.1389 16.7506C15.1414 16.4071 15.1775 16.0647 15.2467 15.7281L21.0375 16.3396Z" fill="#FEC845"/>
<path d="M12.8987 6.73109C12.8987 3.89327 10.3682 1.33594 7.24668 1.33594C4.12515 1.33594 1.5946 3.89327 1.5946 6.73109C1.5946 9.5689 4.12515 12.1262 7.24668 12.1262C7.4091 12.1262 7.56885 12.1152 7.72782 12.1017L9.8161 13.6677V11.5061C11.6445 10.5798 12.8987 8.72691 12.8987 6.73109Z" fill="#F16069"/>
<path d="M8.75734 11.0729L9.81561 11.8693V13.6677L7.72965 12.1008C7.57039 12.1162 7.41107 12.1265 7.24668 12.1265C4.12262 12.1265 1.5946 9.56763 1.5946 6.73136C1.5946 5.1025 2.42703 3.56617 3.7321 2.55396C3.02391 3.45205 2.63371 4.55972 2.62264 5.70339C2.62264 8.53973 5.15059 11.0985 8.27464 11.0985C8.43875 11.0985 8.59801 11.0883 8.75734 11.0729Z" fill="#EF353F"/>
<path d="M7.24668 3.90503C9.03768 3.90503 10.3296 5.19878 10.3296 6.98802V8.52948C10.3295 8.59704 10.3161 8.66392 10.2902 8.7263C10.2643 8.78868 10.2263 8.84535 10.1785 8.89306C10.1307 8.94077 10.0739 8.97859 10.0115 9.00436C9.94903 9.03013 9.88212 9.04335 9.81456 9.04326H4.67873C4.61118 9.04334 4.54427 9.03011 4.48183 9.00434C4.4194 8.97856 4.36265 8.94074 4.31483 8.89303C4.26701 8.84532 4.22905 8.78866 4.20313 8.72628C4.17721 8.66391 4.16383 8.59703 4.16376 8.52948V6.98802C4.16376 5.19878 5.45561 3.90503 7.24668 3.90503Z" fill="#E69B6C"/>
<path d="M10.3631 8.01558C9.85513 8.01558 9.58211 7.83572 9.36273 7.69116C9.18969 7.57704 9.07537 7.50174 8.80361 7.50174C8.53185 7.50174 8.41752 7.57704 8.24448 7.69116C8.02511 7.83572 7.75229 8.01558 7.24408 8.01558C6.73586 8.01558 6.46361 7.83544 6.2443 7.69095C6.0719 7.57704 5.95778 7.50174 5.68693 7.50174C5.41609 7.50174 5.3019 7.57704 5.1295 7.69095C4.9104 7.83544 4.63731 8.01558 4.13022 8.01558C3.88412 8.01558 3.685 7.78552 3.685 7.50174C3.685 7.21796 3.88433 6.98796 4.13022 6.98796C4.40106 6.98796 4.51497 6.91266 4.68737 6.79875C4.90647 6.65426 5.17956 6.47412 5.68693 6.47412C6.19431 6.47412 6.4674 6.65426 6.68643 6.79875C6.85904 6.91266 6.97295 6.98796 7.24408 6.98796C7.5152 6.98796 7.63016 6.91266 7.8032 6.79854C8.02251 6.65398 8.29539 6.47412 8.80361 6.47412C9.31183 6.47412 9.58471 6.65398 9.80401 6.79854C9.97705 6.91266 10.0915 6.98796 10.3631 6.98796C10.6092 6.98796 10.8084 7.21803 10.8084 7.50174C10.8084 7.78545 10.609 8.01558 10.3631 8.01558Z" fill="#85CCAB"/>
<path d="M7.24668 3.90503C9.03768 3.90503 10.3296 5.19878 10.3296 6.98802V8.52948C10.3295 8.59704 10.3161 8.66392 10.2902 8.7263C10.2643 8.78868 10.2263 8.84535 10.1785 8.89306C10.1307 8.94077 10.0739 8.97859 10.0115 9.00436C9.94903 9.03013 9.88212 9.04335 9.81456 9.04326H4.67873C4.61118 9.04334 4.54427 9.03011 4.48183 9.00434C4.4194 8.97856 4.36265 8.94074 4.31483 8.89303C4.26701 8.84532 4.22905 8.78866 4.20313 8.72628C4.17721 8.66391 4.16383 8.59703 4.16376 8.52948V6.98802C4.16376 5.19878 5.45561 3.90503 7.24668 3.90503Z" fill="#E69B6C"/>
<path d="M10.3296 8.52952C10.3292 8.66567 10.2749 8.79613 10.1786 8.89239C10.0824 8.98866 9.9519 9.04291 9.81576 9.0433H4.67753C4.54139 9.04291 4.41094 8.98865 4.31467 8.89239C4.2184 8.79612 4.16415 8.66566 4.16376 8.52952V6.98806C4.16376 5.95524 4.59534 5.08175 5.30985 4.53711C4.90907 5.05088 4.67781 5.71885 4.67781 6.47422C4.67852 6.5792 4.68713 6.68398 4.70355 6.78767C4.7532 7.12498 4.88952 7.44364 5.0992 7.71249C5.15527 7.78749 5.2171 7.85802 5.28412 7.92343C5.47327 8.11566 5.69883 8.26828 5.94761 8.37237C6.1964 8.47647 6.46343 8.52997 6.73312 8.52973L10.3296 8.52952Z" fill="#E28044"/>
<path d="M10.3631 8.01558C9.85513 8.01558 9.58211 7.83572 9.36273 7.69116C9.18969 7.57704 9.07537 7.50174 8.80361 7.50174C8.53185 7.50174 8.41752 7.57704 8.24448 7.69116C8.02511 7.83572 7.75229 8.01558 7.24408 8.01558C6.73586 8.01558 6.46361 7.83544 6.2443 7.69095C6.0719 7.57704 5.95778 7.50174 5.68693 7.50174C5.41609 7.50174 5.3019 7.57704 5.1295 7.69095C4.9104 7.83544 4.63731 8.01558 4.13022 8.01558C3.88412 8.01558 3.685 7.78552 3.685 7.50174C3.685 7.21796 3.88433 6.98796 4.13022 6.98796C4.40106 6.98796 4.51497 6.91266 4.68737 6.79875C4.90647 6.65426 5.17956 6.47412 5.68693 6.47412C6.19431 6.47412 6.4674 6.65426 6.68643 6.79875C6.85904 6.91266 6.97295 6.98796 7.24408 6.98796C7.5152 6.98796 7.63016 6.91266 7.8032 6.79854C8.02251 6.65398 8.29539 6.47412 8.80361 6.47412C9.31183 6.47412 9.58471 6.65398 9.80401 6.79854C9.97705 6.91266 10.0915 6.98796 10.3631 6.98796C10.6092 6.98796 10.8084 7.21803 10.8084 7.50174C10.8084 7.78545 10.609 8.01558 10.3631 8.01558Z" fill="#85CCAB"/>
<path d="M5.09891 7.71238C4.82519 7.90602 4.49902 8.01176 4.16376 8.01557H4.12776C3.8863 8.01557 3.68591 7.78431 3.68591 7.50172C3.68591 7.21914 3.8863 6.98795 4.12776 6.98795H4.16376C4.41034 6.98275 4.52341 6.90569 4.68787 6.79811C4.693 6.79297 4.69813 6.79297 4.70326 6.78784C4.75296 7.12505 4.88928 7.44361 5.09891 7.71238Z" fill="#63C397"/>
<path d="M20.2976 24.4939C19.7052 24.811 19.043 24.9754 18.371 24.9721H12.9345C12.0777 24.9679 11.243 24.6987 10.5453 24.2013L10.9203 23.1942C11.4795 23.6786 12.1947 23.9449 12.9345 23.9444H18.3708C19.0428 23.9452 19.6963 23.7249 20.2308 23.3175C20.2051 23.7109 20.2275 24.106 20.2976 24.4939Z" fill="#EF444E"/>
<path d="M21.13 22.2383C20.8735 22.7505 20.4796 23.1813 19.9923 23.4826C19.5051 23.7838 18.9436 23.9436 18.3708 23.9441H12.9345C12.3617 23.9434 11.8004 23.7834 11.3132 23.4822C10.826 23.181 10.4321 22.7503 10.1753 22.2383C10.1026 22.0935 10.0682 21.9325 10.0752 21.7707C10.0822 21.6088 10.1304 21.4514 10.2154 21.3134C10.3003 21.1755 10.4191 21.0615 10.5605 20.9824C10.7018 20.9032 10.8611 20.8615 11.0231 20.8612L20.3849 20.8663C20.5372 20.8834 20.6832 20.9371 20.8103 21.0227C20.9375 21.1083 21.0421 21.2233 21.1152 21.358C21.1884 21.4927 21.2279 21.6431 21.2305 21.7963C21.233 21.9496 21.1986 22.1012 21.13 22.2383Z" fill="#7C737D"/>
<path d="M13.0835 20.8612H6.91768V15.3498C6.91768 15.3125 6.9325 15.2767 6.95887 15.2503C6.98524 15.224 7.02101 15.2091 7.05831 15.2091H12.9429C12.9802 15.2091 13.016 15.224 13.0423 15.2503C13.0687 15.2767 13.0835 15.3125 13.0835 15.3498V20.8612Z" fill="#E69B6C"/>
<path d="M13.0835 19.3196V20.8611H6.91769V16.2367C6.91849 15.9644 7.02701 15.7035 7.21956 15.511C7.4121 15.3184 7.67302 15.2099 7.94531 15.2091C7.94531 15.7489 8.05163 16.2834 8.25821 16.7821C8.46478 17.2809 8.76756 17.734 9.14926 18.1157C9.92014 18.8866 10.9657 19.3196 12.0559 19.3196H13.0835Z" fill="#E28044"/>
<path d="M26.4429 5.70337C26.4452 6.04836 26.4125 6.39269 26.3452 6.73106C26.1192 7.9128 25.4615 8.81231 24.3876 9.15114C24.0547 9.25312 23.7081 9.30337 23.36 9.30013V5.70337H26.4429Z" fill="#FCD7CA"/>
<path d="M33.1226 14.6953C33.1229 14.8978 33.0832 15.0983 33.0058 15.2855C32.9285 15.4726 32.8149 15.6427 32.6717 15.7858C32.5285 15.929 32.3585 16.0426 32.1714 16.1199C31.9842 16.1973 31.7837 16.237 31.5812 16.2367H30.0397C29.6309 16.2367 29.2388 16.0743 28.9497 15.7852C28.6606 15.4962 28.4982 15.1041 28.4982 14.6953C28.4982 14.2864 28.6606 13.8944 28.9497 13.6053C29.2388 13.3162 29.6309 13.1538 30.0397 13.1538H31.5812C31.9898 13.1545 32.3815 13.3171 32.6704 13.606C32.9593 13.8949 33.122 14.2866 33.1226 14.6953Z" fill="#2FD9E7"/>
<path d="M32.8965 15.4969C32.7604 15.7238 32.5675 15.9114 32.3369 16.0411C32.1062 16.1709 31.8458 16.2383 31.5811 16.2367H30.0397C29.7035 16.2369 29.3765 16.1271 29.1085 15.9241C28.8406 15.721 28.6464 15.4359 28.5556 15.1123C28.4648 14.7886 28.4823 14.4441 28.6055 14.1313C28.7288 13.8185 28.9509 13.5546 29.2381 13.3799C29.0953 13.6134 29.0174 13.8808 29.0123 14.1544C29.0072 14.4281 29.0752 14.6982 29.2092 14.9369C29.3432 15.1755 29.5383 15.3742 29.7746 15.5123C30.0109 15.6505 30.2797 15.7232 30.5534 15.7229H32.095C32.378 15.7237 32.6556 15.6454 32.8965 15.4969Z" fill="#0DCEDE"/>
<path d="M4.86239 19.8336H3.54122C3.47324 19.8344 3.40577 19.8217 3.34274 19.7962C3.2797 19.7707 3.22235 19.733 3.174 19.6852C3.12564 19.6374 3.08725 19.5805 3.06105 19.5178C3.03485 19.455 3.02136 19.3877 3.02136 19.3198C3.02136 19.2518 3.03485 19.1845 3.06105 19.1217C3.08725 19.059 3.12564 19.0021 3.174 18.9543C3.22235 18.9065 3.2797 18.8688 3.34274 18.8433C3.40577 18.8178 3.47324 18.8051 3.54122 18.8059H4.86239C4.93037 18.8051 4.99783 18.8178 5.06087 18.8433C5.1239 18.8688 5.18126 18.9065 5.22961 18.9543C5.27796 19.0021 5.31635 19.059 5.34255 19.1217C5.36875 19.1845 5.38224 19.2518 5.38224 19.3198C5.38224 19.3877 5.36875 19.455 5.34255 19.5178C5.31635 19.5805 5.27796 19.6374 5.22961 19.6852C5.18126 19.733 5.1239 19.7707 5.06087 19.7962C4.99783 19.8217 4.93037 19.8344 4.86239 19.8336Z" fill="#E69B6C"/>
<path d="M4.8624 17.7783H2.66036C2.59238 17.7791 2.52492 17.7664 2.46188 17.7409C2.39884 17.7154 2.34149 17.6777 2.29314 17.6299C2.24478 17.5821 2.20639 17.5252 2.18019 17.4625C2.15399 17.3997 2.1405 17.3324 2.1405 17.2645C2.1405 17.1965 2.15399 17.1292 2.18019 17.0664C2.20639 17.0037 2.24478 16.9468 2.29314 16.899C2.34149 16.8512 2.39884 16.8135 2.46188 16.788C2.52492 16.7626 2.59238 16.7499 2.66036 16.7506H4.8624C4.93038 16.7499 4.99785 16.7626 5.06088 16.788C5.12392 16.8135 5.18127 16.8512 5.22963 16.899C5.27798 16.9468 5.31637 17.0037 5.34257 17.0664C5.36877 17.1292 5.38226 17.1965 5.38226 17.2645C5.38226 17.3324 5.36877 17.3997 5.34257 17.4625C5.31637 17.5252 5.27798 17.5821 5.22963 17.6299C5.18127 17.6777 5.12392 17.7154 5.06088 17.7409C4.99785 17.7664 4.93038 17.7791 4.8624 17.7783Z" fill="#E69B6C"/>
<path d="M4.86239 15.723H1.77947C1.71149 15.7238 1.64403 15.7111 1.58099 15.6856C1.51795 15.6601 1.4606 15.6224 1.41225 15.5746C1.36389 15.5268 1.3255 15.4699 1.2993 15.4072C1.2731 15.3445 1.25961 15.2771 1.25961 15.2092C1.25961 15.1412 1.2731 15.0739 1.2993 15.0111C1.3255 14.9484 1.36389 14.8915 1.41225 14.8437C1.4606 14.7959 1.51795 14.7582 1.58099 14.7327C1.64403 14.7073 1.71149 14.6946 1.77947 14.6953H4.86239C4.93037 14.6946 4.99783 14.7073 5.06087 14.7327C5.1239 14.7582 5.18126 14.7959 5.22961 14.8437C5.27796 14.8915 5.31635 14.9484 5.34255 15.0111C5.36875 15.0739 5.38224 15.1412 5.38224 15.2092C5.38224 15.2771 5.36875 15.3445 5.34255 15.4072C5.31635 15.4699 5.27796 15.5268 5.22961 15.5746C5.18126 15.6224 5.1239 15.6601 5.06087 15.6856C4.99783 15.7111 4.93037 15.7238 4.86239 15.723Z" fill="#E69B6C"/>
<path d="M22.322 9.67016C22.6164 9.98137 22.8067 10.3764 22.8667 10.8006H22.8516C22.7725 10.8005 22.6936 10.7954 22.6152 10.7852C22.4225 10.7551 22.2319 10.7122 22.0449 10.6567C21.2566 10.4382 20.5369 10.0226 19.9536 9.44917C19.9279 9.4235 19.8974 9.39784 19.8714 9.36697C20.1797 9.10492 20.452 8.88885 20.6781 8.7196C21.1363 9.17114 21.7021 9.49831 22.322 9.67016Z" fill="#FECD55"/>
<path d="M26.4429 5.70337C26.4452 6.04836 26.4125 6.39269 26.3452 6.73106C25.826 6.73106 25.3281 6.93731 24.961 7.30444C24.5939 7.67157 24.3876 8.1695 24.3876 8.6887V9.15114C24.0547 9.25312 23.7081 9.30337 23.36 9.30013V5.70337H26.4429Z" fill="#FAC1AD"/>
<path d="M27.1982 5.70337H23.36V9.25619C23.3603 9.33005 23.3447 9.40311 23.3143 9.47041C23.2839 9.53771 23.2394 9.59769 23.1838 9.64628C23.1281 9.69486 23.0627 9.73091 22.9919 9.75199C22.9211 9.77306 22.8467 9.77867 22.7735 9.76842C22.6212 9.74462 22.4704 9.71175 22.322 9.66998C21.702 9.49818 21.1361 9.17101 20.6778 8.71943C20.2568 8.31482 19.9341 7.81904 19.7346 7.27021C19.5351 6.72137 19.4641 6.1341 19.5271 5.55354C19.6279 4.59439 20.085 3.708 20.808 3.06968C21.5309 2.43137 22.4671 2.08763 23.4314 2.10645C24.3956 2.12526 25.3177 2.50527 26.0152 3.1713C26.7127 3.83733 27.1349 4.74088 27.1982 5.70323V5.70337Z" fill="#F16069"/>
<path d="M23.3497 8.64252C23.3549 8.64252 23.3549 8.64252 23.36 8.64765V9.25395C23.3604 9.32783 23.3449 9.40092 23.3146 9.46828C23.2842 9.53565 23.2398 9.59572 23.1843 9.64443C23.1287 9.69315 23.0634 9.72937 22.9927 9.75066C22.9219 9.77194 22.8474 9.77779 22.7742 9.7678C22.6219 9.74317 22.471 9.71059 22.322 9.67021C21.702 9.4984 21.1361 9.17123 20.6779 8.71965C20.2661 8.32232 19.9485 7.83793 19.7482 7.30195C19.5479 6.76598 19.47 6.19199 19.5203 5.62202C19.5705 5.05205 19.7476 4.50054 20.0386 4.00787C20.3295 3.51519 20.727 3.09384 21.2019 2.77466C20.6903 3.52136 20.4601 4.42531 20.5524 5.32575C20.6446 6.22619 21.0532 7.06473 21.7055 7.69224C22.1638 8.14375 22.7297 8.47083 23.3497 8.64252Z" fill="#EF444E"/>
<path d="M17.7079 28.5685H13.5973V26.14C13.5973 26.1027 13.6121 26.067 13.6385 26.0406C13.6649 26.0142 13.7006 25.9994 13.7379 25.9994H17.5673C17.6046 25.9994 17.6404 26.0142 17.6667 26.0406C17.6931 26.067 17.7079 26.1027 17.7079 26.14V28.5685Z" fill="#2FD9E7"/>
<path d="M17.7079 28.0547V28.5685H13.5974V27.0271C13.5979 26.8294 13.6554 26.6361 13.7629 26.4703C13.8704 26.3044 14.0235 26.1731 14.2037 26.0919C14.1416 26.2236 14.11 26.3676 14.1112 26.5132C14.1112 26.9221 14.2736 27.3141 14.5626 27.6032C14.8517 27.8923 15.2438 28.0547 15.6526 28.0547H17.7079Z" fill="#0DCEDE"/>
<path d="M27.4705 6.21723H23.36C23.292 6.21802 23.2246 6.20532 23.1615 6.17986C23.0985 6.15439 23.0411 6.11667 22.9928 6.06888C22.9444 6.02109 22.906 5.96418 22.8798 5.90145C22.8536 5.83871 22.8401 5.7714 22.8401 5.70342C22.8401 5.63543 22.8536 5.56813 22.8798 5.50539C22.906 5.44266 22.9444 5.38575 22.9928 5.33796C23.0411 5.29017 23.0985 5.25245 23.1615 5.22698C23.2246 5.20152 23.292 5.18882 23.36 5.18961H27.4705C27.5385 5.18882 27.606 5.20152 27.669 5.22698C27.7321 5.25245 27.7894 5.29017 27.8378 5.33796C27.8861 5.38575 27.9245 5.44266 27.9507 5.50539C27.9769 5.56813 27.9904 5.63543 27.9904 5.70342C27.9904 5.7714 27.9769 5.83871 27.9507 5.90145C27.9245 5.96418 27.8861 6.02109 27.8378 6.06888C27.7894 6.11667 27.7321 6.15439 27.669 6.17986C27.606 6.20532 27.5385 6.21802 27.4705 6.21723Z" fill="#FFE589"/>
<path d="M13.0835 19.8335H6.40386C6.33588 19.8327 6.26841 19.8454 6.20538 19.8709C6.14234 19.8964 6.08499 19.9341 6.03664 19.9819C5.98828 20.0297 5.94989 20.0866 5.92369 20.1493C5.89749 20.212 5.884 20.2794 5.884 20.3473C5.884 20.4153 5.89749 20.4826 5.92369 20.5454C5.94989 20.6081 5.98828 20.665 6.03664 20.7128C6.08499 20.7606 6.14234 20.7983 6.20538 20.8238C6.26841 20.8492 6.33588 20.8619 6.40386 20.8611H13.0835V19.8335Z" fill="#2FD9E7"/>
<path d="M27.4705 6.21723H23.36C23.292 6.21802 23.2246 6.20532 23.1615 6.17986C23.0985 6.15439 23.0411 6.11667 22.9928 6.06888C22.9444 6.02109 22.906 5.96418 22.8798 5.90145C22.8536 5.83871 22.8401 5.7714 22.8401 5.70342C22.8401 5.63543 22.8536 5.56813 22.8798 5.50539C22.906 5.44266 22.9444 5.38575 22.9928 5.33796C23.0411 5.29017 23.0985 5.25245 23.1615 5.22698C23.2246 5.20152 23.292 5.18882 23.36 5.18961H27.4705C27.5385 5.18882 27.606 5.20152 27.669 5.22698C27.7321 5.25245 27.7894 5.29017 27.8378 5.33796C27.8861 5.38575 27.9245 5.44266 27.9507 5.50539C27.9769 5.56813 27.9904 5.63543 27.9904 5.70342C27.9904 5.7714 27.9769 5.83871 27.9507 5.90145C27.9245 5.96418 27.8861 6.02109 27.8378 6.06888C27.7894 6.11667 27.7321 6.15439 27.669 6.17986C27.606 6.20532 27.5385 6.21802 27.4705 6.21723Z" fill="#FFE589"/>
<path d="M9.78996 26.2203L9.02946 28.25C8.71744 28.2839 8.40441 28.1955 8.15625 28.0033C9.00408 27.993 9.46652 26.0919 9.46652 26.0919L9.78996 26.2203Z" fill="#FEC845"/>
</svg>
