<svg width="18" height="19" viewBox="0 0 18 19" fill="none" xmlns="http://www.w3.org/2000/svg">
<path d="M10.2975 3.13251L11.6175 5.77251C11.7975 6.14001 12.2775 6.49251 12.6825 6.56001L15.075 6.95751C16.605 7.21251 16.965 8.32251 15.8625 9.41751L14.0025 11.2775C13.6875 11.5925 13.515 12.2 13.6125 12.635L14.145 14.9375C14.565 16.76 13.5975 17.465 11.985 16.5125L9.74249 15.185C9.33749 14.945 8.66999 14.945 8.25749 15.185L6.01499 16.5125C4.40999 17.465 3.43499 16.7525 3.85499 14.9375L4.38749 12.635C4.48499 12.2 4.31249 11.5925 3.99749 11.2775L2.13749 9.41751C1.04249 8.32251 1.39499 7.21251 2.92499 6.95751L5.31749 6.56001C5.71499 6.49251 6.19499 6.14001 6.37499 5.77251L7.69499 3.13251C8.41499 1.70001 9.58499 1.70001 10.2975 3.13251Z" fill="#F54749"/>
</svg>
